<?xml version="1.0" standalone="no"?>
<!DOCTYPE svg PUBLIC "-//W3C//DTD SVG 20010904//EN"
 "http://www.w3.org/TR/2001/REC-SVG-20010904/DTD/svg10.dtd">
<svg version="1.0" xmlns="http://www.w3.org/2000/svg"
 width="706.000000pt" height="706.000000pt" viewBox="0 0 706.000000 706.000000"
 preserveAspectRatio="xMidYMid meet">

<g transform="translate(0.000000,706.000000) scale(0.100000,-0.100000)"
fill="#000000" stroke="none">
<path d="M3233 6740 c-164 -33 -387 -185 -647 -442 -76 -76 -143 -138 -149
-138 -5 0 -37 17 -71 39 -84 53 -168 94 -251 122 -60 20 -89 24 -195 24 -146
-1 -194 -16 -314 -96 -206 -138 -368 -412 -456 -771 -17 -67 -30 -126 -30
-131 0 -23 80 53 104 99 78 149 231 335 346 419 57 42 170 98 235 116 83 23
265 18 355 -10 135 -42 254 -118 324 -208 36 -46 37 -47 43 -23 4 14 30 72 59
130 147 293 421 546 772 712 l104 49 -18 27 c-53 84 -103 103 -211 82z"/>
<path d="M4160 6714 c-98 -13 -280 -51 -400 -85 -471 -132 -805 -347 -1011
-650 -55 -82 -125 -230 -146 -310 -17 -65 -16 -67 6 -134 53 -164 64 -429 27
-650 -8 -49 -14 -90 -13 -91 4 -4 198 266 285 396 136 203 149 230 167 350 52
350 204 674 383 815 122 98 247 137 437 138 194 2 328 -37 481 -138 143 -95
285 -264 370 -442 l35 -72 72 35 c73 35 184 64 245 64 19 0 32 3 30 8 -2 4
-17 34 -34 67 -18 33 -57 123 -88 200 -69 170 -125 262 -205 338 -65 62 -164
115 -266 143 -59 15 -300 27 -375 18z"/>
<path d="M5440 6412 c-69 -24 -88 -26 -238 -27 -89 0 -162 0 -162 0 0 -15 147
-349 165 -376 27 -42 78 -79 107 -79 34 0 174 -50 219 -78 26 -17 89 -81 145
-148 54 -65 148 -171 207 -236 59 -65 115 -134 123 -153 8 -20 14 -67 14 -113
l0 -78 71 -79 c39 -44 76 -86 83 -93 11 -11 22 -1 60 57 135 202 110 371 -74
506 -68 50 -207 117 -322 154 -107 36 -103 31 -113 131 -30 304 -101 564 -170
618 -33 26 -22 26 -115 -6z"/>
<path d="M3700 6381 c-252 -81 -428 -324 -511 -704 -40 -182 -51 -290 -56
-560 -7 -339 11 -573 68 -882 38 -203 113 -485 131 -485 4 0 8 5 8 11 0 6 7
63 15 127 8 64 26 254 40 422 61 737 119 1007 260 1220 112 169 259 250 451
250 92 0 94 0 108 28 25 49 78 93 155 130 65 31 84 36 152 36 44 1 79 3 79 4
0 2 -21 36 -47 75 -158 235 -381 348 -686 346 -79 0 -128 -5 -167 -18z"/>
<path d="M1873 5899 c-207 -34 -424 -224 -557 -486 -29 -57 -50 -83 -94 -117
-150 -115 -262 -291 -317 -498 -13 -51 -34 -169 -45 -263 -24 -195 -70 -433
-100 -519 -11 -33 -19 -60 -18 -61 2 -1 53 -14 113 -30 339 -86 535 -191 581
-311 24 -64 15 -181 -27 -324 -32 -108 -34 -124 -34 -260 1 -131 4 -153 28
-227 68 -202 252 -381 476 -458 42 -15 88 -31 102 -36 34 -13 59 -58 59 -106
0 -114 68 -253 174 -358 82 -81 163 -127 272 -155 161 -41 350 -11 446 72 102
89 152 268 117 416 -19 78 -92 222 -157 308 -107 141 -268 280 -459 395 -208
126 -277 262 -277 549 1 275 69 549 250 1008 79 200 106 292 134 458 26 148
31 368 11 474 -58 312 -223 483 -511 529 -74 12 -94 12 -167 0z"/>
<path d="M3969 5667 c-129 -44 -202 -115 -279 -272 -105 -213 -146 -449 -205
-1155 -26 -313 -45 -468 -69 -559 -9 -37 -10 -51 -2 -51 7 0 88 16 180 35 92
19 225 40 295 46 208 19 509 0 749 -48 81 -16 84 -15 110 4 38 28 89 116 103
180 17 73 -1 164 -51 269 -30 61 -64 108 -145 197 -143 159 -217 262 -275 381
-73 151 -80 188 -89 446 l-8 225 -42 130 c-22 71 -41 140 -41 152 0 48 -119
58 -231 20z"/>
<path d="M5831 5315 c-16 -15 -36 -42 -43 -60 -15 -43 -22 -44 -38 -5 -7 17
-16 30 -21 30 -14 0 -11 -37 6 -77 8 -19 15 -52 15 -73 0 -43 18 -100 31 -100
5 0 9 13 9 29 0 26 8 34 52 58 90 48 120 122 78 191 -24 39 -48 41 -89 7z"/>
<path d="M4852 5270 c-41 -19 -216 -150 -209 -157 2 -1 37 1 79 7 93 11 113 6
164 -41 53 -48 105 -57 196 -34 79 19 103 12 147 -44 58 -73 62 -36 10 92 -16
37 -33 94 -40 127 -6 33 -15 60 -19 60 -4 0 -13 -20 -19 -44 -6 -25 -15 -47
-20 -51 -6 -3 -33 15 -61 40 -29 26 -63 51 -77 56 -39 15 -105 10 -151 -11z"/>
<path d="M2950 5087 c-52 -78 -164 -234 -249 -347 l-154 -205 -68 -177 c-166
-430 -238 -748 -226 -992 3 -59 7 -110 9 -112 2 -2 38 14 80 36 217 114 467
167 829 177 l217 6 -50 61 c-194 238 -290 697 -291 1384 0 171 0 312 -1 312
-1 -1 -44 -65 -96 -143z"/>
<path d="M6336 4523 c5 -27 3 -29 -58 -46 -102 -29 -114 -30 -188 -12 -104 25
-195 3 -226 -56 -8 -16 -23 -33 -35 -39 -22 -12 -43 -2 -113 54 -20 16 -39 26
-42 23 -9 -9 30 -67 69 -105 39 -38 68 -42 173 -28 57 7 63 6 92 -19 19 -16
40 -49 53 -86 21 -56 24 -60 48 -54 59 15 111 56 158 127 47 70 80 100 67 61
-4 -12 2 -9 20 10 22 23 26 38 26 85 0 58 -15 102 -37 110 -9 2 -11 -5 -7 -25z"/>
<path d="M6091 3844 c-69 -106 -169 -158 -393 -204 -139 -29 -188 -48 -188
-74 0 -24 31 -27 128 -10 163 27 328 92 448 174 l46 32 38 -21 c21 -11 52 -21
69 -21 28 0 31 3 31 30 0 30 -32 70 -57 70 -7 0 -30 17 -51 38 l-37 37 -34
-51z"/>
<path d="M874 3730 c-70 -14 -145 -59 -209 -124 -74 -73 -120 -141 -216 -312
-107 -191 -162 -268 -270 -378 l-98 -100 30 -56 c80 -150 245 -329 394 -426
173 -113 327 -158 535 -158 148 0 235 15 383 65 102 34 107 34 107 14 0 -28
-32 -69 -151 -190 -64 -66 -135 -146 -158 -178 -87 -127 -130 -284 -110 -406
21 -133 67 -214 178 -316 36 -33 112 -105 168 -161 88 -87 108 -114 144 -188
23 -47 45 -86 48 -86 24 0 234 160 350 267 l63 58 -57 93 c-78 126 -115 233
-115 336 0 110 32 236 89 349 l47 94 -22 35 c-28 44 -54 119 -55 161 -2 71 -7
76 -119 120 -242 96 -434 273 -516 475 -53 132 -57 349 -9 517 79 281 80 292
12 348 -141 115 -317 174 -443 147z"/>
<path d="M3800 3605 c-117 -17 -303 -56 -314 -66 -11 -10 160 -122 324 -211
303 -165 586 -257 907 -293 319 -36 474 -97 759 -296 78 -55 158 -106 178
-114 95 -40 212 9 347 144 97 97 154 186 199 311 28 75 64 219 58 226 -2 1
-30 -18 -63 -43 -119 -90 -319 -170 -451 -180 -135 -11 -211 21 -479 197 -318
209 -519 284 -875 324 -160 19 -467 19 -590 1z"/>
<path d="M6365 3383 c-10 -104 -43 -257 -70 -329 -85 -225 -242 -410 -425
-501 -63 -31 -85 -37 -140 -37 -86 0 -126 19 -307 145 l-144 101 -207 -72
c-353 -123 -810 -290 -975 -356 -215 -86 -373 -123 -521 -124 l-59 0 7 -69
c11 -110 44 -229 88 -321 50 -105 160 -221 253 -267 67 -34 185 -73 220 -73
17 0 44 -25 101 -91 312 -368 770 -570 1198 -530 374 36 754 204 1045 465 423
377 628 1011 501 1545 -79 328 -267 540 -512 575 l-46 7 -7 -68z"/>
<path d="M3120 3369 c-180 -15 -345 -41 -476 -74 -128 -32 -275 -92 -323 -132
-24 -19 -24 -20 -6 -49 35 -56 90 -106 173 -155 188 -115 341 -247 471 -409
69 -85 84 -98 158 -136 156 -79 347 -113 533 -94 149 14 263 45 475 128 182
71 534 199 858 313 l178 62 -33 15 c-127 55 -252 84 -458 107 -320 34 -554
101 -810 229 -112 57 -194 106 -276 168 l-51 38 -159 -1 c-87 -1 -202 -5 -254
-10z"/>
<path d="M3124 2277 c42 -154 44 -272 6 -381 -53 -156 -164 -258 -323 -298
-109 -28 -300 -22 -397 11 -87 30 -193 97 -260 165 -30 31 -57 56 -61 56 -3 0
-18 -27 -32 -60 -84 -193 -78 -391 15 -560 90 -163 262 -315 461 -411 227
-108 474 -112 677 -9 33 17 66 30 73 30 26 0 43 -35 60 -125 38 -190 139 -340
260 -382 65 -22 169 -22 257 1 165 43 419 204 511 323 80 105 115 235 90 339
-11 43 -19 54 -68 89 -58 41 -249 224 -297 283 -21 27 -39 37 -87 48 -205 48
-380 185 -478 373 -54 104 -79 193 -93 327 -11 104 -14 114 -33 114 -32 0
-154 35 -223 63 -64 25 -64 25 -58 4z"/>
</g>
</svg>
